<svg xmlns="http://www.w3.org/2000/svg" viewBox="0 0 32 32"><defs><style>.cls-1{fill:#0DAB77}</style></defs><g id="globe"><path class="cls-1" d="M16 18v-6h3.61a14.17 14.17 0 0 1 .39 3 1 1 0 0 0 2 0 15.68 15.68 0 0 0-.33-3h3.9a10.66 10.66 0 0 1 .43 3 1 1 0 0 0 2 0A13 13 0 0 0 15.09 2H15a13 13 0 0 0 0 26 1 1 0 0 0 .42-.1.47.47 0 0 0 .09-.06 1.16 1.16 0 0 0 .24-.2h.05v-.1l.09-.19a1.18 1.18 0 0 0 0-.2L16 27v-7a1 1 0 0 0 0-2zm-2 0h-3.65a13.56 13.56 0 0 1-.35-3 14.17 14.17 0 0 1 .39-3H14zm0-12.78V10h-3a13.92 13.92 0 0 1 3-4.78zM16 10V5.21A13.9 13.9 0 0 1 19 10zm8.79 0h-3.65A15.93 15.93 0 0 0 18 4.42 11.08 11.08 0 0 1 24.79 10zM12 4.42A15.93 15.93 0 0 0 8.86 10H7a1 1 0 0 0 0 2h1.33A15.68 15.68 0 0 0 8 15a15 15 0 0 0 .3 3H4.43A10.66 10.66 0 0 1 4 15a11 11 0 0 1 8-10.58zM5.21 20h3.61a16.68 16.68 0 0 0 3.25 5.59A11 11 0 0 1 5.21 20zM14 24.73A15.2 15.2 0 0 1 11 20h3zM26.21 20.79a1 1 0 0 0-1.42 0l-4 4a1 1 0 0 0 0 1.42 1 1 0 0 0 1.42 0l4-4a1 1 0 0 0 0-1.42z"/><path class="cls-1" d="M21.52 22.5a1 1 0 0 0 0-2 1 1 0 1 0 0 2zM25.52 24.5a1 1 0 1 0 1 1 1 1 0 0 0-1.01-1z"/><path class="cls-1" d="M23.5 17a6.5 6.5 0 1 0 6.5 6.5 6.51 6.51 0 0 0-6.5-6.5zm0 11a4.5 4.5 0 1 1 4.5-4.5 4.51 4.51 0 0 1-4.5 4.5z"/></g></svg>